<svg id="Layer_x0020_1" xmlns="http://www.w3.org/2000/svg" width="89.714" height="89.714" viewBox="0 0 89.714 89.714">
  <path id="Path_31" data-name="Path 31" d="M44.857,0A44.857,44.857,0,1,1,0,44.857,44.857,44.857,0,0,1,44.857,0Z" fill="#f5ac37"/>
  <path id="Path_32" data-name="Path 32" d="M111.694,126.745h17.045c.363,0,.535,0,.561-.476a32.587,32.587,0,0,0,0-5.214c0-.337-.168-.476-.533-.476H94.845c-.42,0-.533.139-.533.533v4.99c0,.644,0,.644.672.644h16.71Zm15.7-12a.546.546,0,0,0,0-.392,11.086,11.086,0,0,0-1.013-1.766,14.3,14.3,0,0,0-2.075-2.608,6.879,6.879,0,0,0-1.29-1.262,20.152,20.152,0,0,0-8.411-4.261,20.909,20.909,0,0,0-4.766-.5H94.787c-.42,0-.476.168-.476.533v9.952c0,.42,0,.533.533.533H127.2s.281-.057.337-.224h-.137Zm0,17.83a6.542,6.542,0,0,0-1.433,0H94.874c-.42,0-.561,0-.561.561v9.73c0,.448,0,.561.561.561h14.354a7.17,7.17,0,0,0,2.045-.139,21.369,21.369,0,0,0,6.086-1.346,11.139,11.139,0,0,0,2.045-.953h.2a18.214,18.214,0,0,0,7.822-7.874s.2-.424-.024-.535Zm-38.718,15.9v-15.5c0-.365,0-.42-.448-.42H82.146c-.337,0-.476,0-.476-.448v-5.327h6.5c.363,0,.5,0,.5-.476v-5.271c0-.337,0-.42-.448-.42H82.146c-.337,0-.476,0-.476-.448v-4.933c0-.309,0-.392.448-.392h6.027c.42,0,.533,0,.533-.533V99.191c0-.448,0-.561.561-.561h21.026a32.037,32.037,0,0,1,4.542.5,27.4,27.4,0,0,1,8.775,3.252,24.729,24.729,0,0,1,4.933,3.813,27.015,27.015,0,0,1,3,3.728,22.485,22.485,0,0,1,2.19,4.289.73.73,0,0,0,.838.589h5.018c.644,0,.644,0,.672.618v4.6c0,.448-.168.561-.618.561h-3.87c-.392,0-.5,0-.476.5a28.639,28.639,0,0,1,0,5.129c0,.476,0,.533.535.533h4.427c.2.252,0,.5,0,.759a5.66,5.66,0,0,1,0,.979v3.393c0,.476-.139.618-.561.618h-5.3a.7.7,0,0,0-.813.533,22.418,22.418,0,0,1-5.888,8.579,33.766,33.766,0,0,1-3,2.41c-1.122.646-2.214,1.318-3.365,1.851a30.312,30.312,0,0,1-6.617,2.1,34.495,34.495,0,0,1-6.56.533H88.67v-.028Z" transform="translate(-65.184 -78.721)" fill="#fefefd"/>
</svg>
