<svg xmlns="http://www.w3.org/2000/svg" width="106.659" height="92.785" viewBox="0 0 106.659 92.785">
  <g id="tether-usdt-logo_1_" data-name="tether-usdt-logo (1)" transform="translate(-0.005 0)">
    <path id="Path_26" data-name="Path 26" d="M19.534.456.085,41.307a.792.792,0,0,0,.17.924L52.78,92.562a.8.8,0,0,0,1.109,0l52.525-50.328a.792.792,0,0,0,.17-.924L87.136.459A.786.786,0,0,0,86.419,0H20.256a.786.786,0,0,0-.723.456Z" transform="translate(0)" fill="#50af95" fill-rule="evenodd"/>
    <path id="Path_27" data-name="Path 27" d="M104.043,73.09h0c-.377.028-2.325.145-6.671.145-3.457,0-5.911-.1-6.772-.145h0c-13.358-.588-23.329-2.913-23.329-5.7s9.971-5.106,23.329-5.7v9.085c.874.063,3.375.211,6.832.211,4.148,0,6.225-.173,6.6-.207V61.7c13.33.594,23.279,2.919,23.279,5.7s-9.946,5.1-23.279,5.694h0Zm0-12.334V52.627h18.6V40.23H72v12.4H90.6v8.126c-15.118.694-26.487,3.689-26.487,7.278s11.369,6.58,26.487,7.278v26.05H104.04V75.3c15.083-.694,26.434-3.686,26.434-7.271s-11.341-6.577-26.434-7.275h0Zm0,0Z" transform="translate(-43.96 -27.588)" fill="#fff" fill-rule="evenodd"/>
  </g>
</svg>
