<svg xmlns="http://www.w3.org/2000/svg" width="81.773" height="81.782" viewBox="0 0 81.773 81.782">
  <g id="Layer_x0020_1" transform="translate(-2 -19.001)">
    <g id="_1421344023328" transform="translate(2 19.001)">
      <path id="Path_160" data-name="Path 160" d="M80.549,50.784A40.877,40.877,0,1,1,50.773,1.224,40.88,40.88,0,0,1,80.549,50.784h0Z" transform="translate(0 -0.001)" fill="#f7931a"/>
      <path id="Path_161" data-name="Path 161" d="M1034.491,733.569c.814-5.442-3.329-8.367-8.994-10.318l1.838-7.371-4.487-1.118-1.789,7.177c-1.18-.294-2.391-.571-3.6-.846l1.8-7.225-4.484-1.118-1.839,7.369c-.976-.222-1.935-.442-2.865-.673l.005-.023-6.188-1.545-1.194,4.793s3.329.763,3.259.81a2.388,2.388,0,0,1,2.091,2.61l-2.093,8.4a3.641,3.641,0,0,1,.466.15c-.15-.037-.309-.078-.474-.117l-2.934,11.764a1.633,1.633,0,0,1-2.056,1.066c.045.065-3.261-.814-3.261-.814l-2.228,5.136,5.839,1.456c1.086.272,2.151.557,3.2.825l-1.857,7.456,4.482,1.118,1.839-7.377c1.224.332,2.413.639,3.576.928l-1.833,7.342,4.487,1.118,1.857-7.442c7.652,1.448,13.4.864,15.827-6.057,1.951-5.572-.1-8.786-4.123-10.882,2.932-.676,5.14-2.6,5.729-6.588h0Zm-10.252,14.376c-1.387,5.572-10.768,2.56-13.81,1.8l2.464-9.878c3.041.759,12.8,2.262,11.346,8.073Zm1.388-14.457c-1.265,5.068-9.073,2.493-11.606,1.862l2.234-8.958c2.533.631,10.69,1.81,9.373,7.1Z" transform="translate(-975.573 -698.504)" fill="#fff"/>
    </g>
  </g>
</svg>
